<?xml version="1.0" encoding="UTF-8" standalone="no"?>
<!-- Generator: Adobe Illustrator 16.0.0, SVG Export Plug-In . SVG Version: 6.00 Build 0)  -->

<svg
   xmlns:dc="http://purl.org/dc/elements/1.1/"
   xmlns:cc="http://creativecommons.org/ns#"
   xmlns:rdf="http://www.w3.org/1999/02/22-rdf-syntax-ns#"
   xmlns:svg="http://www.w3.org/2000/svg"
   xmlns="http://www.w3.org/2000/svg"
   xmlns:sodipodi="http://sodipodi.sourceforge.net/DTD/sodipodi-0.dtd"
   xmlns:inkscape="http://www.inkscape.org/namespaces/inkscape"
   version="1.1"
   id="Capa_1"
   x="0px"
   y="0px"
   width="49.652px"
   height="49.652px"
   viewBox="0 0 49.652 49.652"
   style="enable-background:new 0 0 49.652 49.652;"
   xml:space="preserve"
   inkscape:version="0.48.4 r9939"
   sodipodi:docname="Diablo III.svg"><metadata
   id="metadata3577"><rdf:RDF><cc:Work
       rdf:about=""><dc:format>image/svg+xml</dc:format><dc:type
         rdf:resource="http://purl.org/dc/dcmitype/StillImage" /><dc:title></dc:title></cc:Work></rdf:RDF></metadata><defs
   id="defs3575" /><sodipodi:namedview
   pagecolor="#ffffff"
   bordercolor="#666666"
   borderopacity="1"
   objecttolerance="10"
   gridtolerance="10"
   guidetolerance="10"
   inkscape:pageopacity="0"
   inkscape:pageshadow="2"
   inkscape:window-width="1644"
   inkscape:window-height="940"
   id="namedview3573"
   showgrid="false"
   inkscape:zoom="8"
   inkscape:cx="11.429001"
   inkscape:cy="21.279038"
   inkscape:window-x="69"
   inkscape:window-y="34"
   inkscape:window-maximized="0"
   inkscape:current-layer="Capa_1"
   inkscape:snap-page="false"
   showguides="true"
   inkscape:guide-bbox="true" />

<g
   id="g3543">
</g>
<g
   id="g3545">
</g>
<g
   id="g3547">
</g>
<g
   id="g3549">
</g>
<g
   id="g3551">
</g>
<g
   id="g3553">
</g>
<g
   id="g3555">
</g>
<g
   id="g3557">
</g>
<g
   id="g3559">
</g>
<g
   id="g3561">
</g>
<g
   id="g3563">
</g>
<g
   id="g3565">
</g>
<g
   id="g3567">
</g>
<g
   id="g3569">
</g>
<g
   id="g3571">
</g>
<flowRoot
   xml:space="preserve"
   id="flowRoot3579"
   style="fill:black;stroke:none;stroke-opacity:1;stroke-width:1px;stroke-linejoin:miter;stroke-linecap:butt;fill-opacity:1;font-family:Sans;font-style:normal;font-weight:normal;font-size:40px;line-height:125%;letter-spacing:0px;word-spacing:0px"><flowRegion
     id="flowRegion3581"><rect
       id="rect3583"
       width="25.445755"
       height="40.481884"
       x="17.438351"
       y="7.0348086" /></flowRegion><flowPara
     id="flowPara3585" /></flowRoot><g
   style="font-size:46.30601500999999600px;font-style:normal;font-weight:normal;line-height:125%;letter-spacing:0px;word-spacing:0px;fill:#917354;fill-opacity:1;stroke:none;font-family:Sans"
   id="text3881"><path
     d="m 27.349937,14.386186 c 3.738218,1.567676 5.750538,3.097642 6.036966,4.589903 0.7235,1.567672 1.032508,3.105174 0.927025,4.612513 0.150704,2.336419 -0.54268,4.748188 -2.080153,7.235315 -1.627974,2.170602 -3.738272,3.572443 -6.330901,4.205527 l -4.793396,-0.09044 -3.255892,-2.848906 c 3.949257,0.51251 6.948895,0.04523 8.998923,-1.401842 1.341523,-0.994845 2.396672,-2.193193 3.16545,-3.595047 0.467253,-1.763593 0.625526,-3.414148 0.474818,-4.951669 -0.422088,-1.793735 -1.055177,-3.04484 -1.89927,-3.753319 l -1.334011,-0.61048 c -1.085321,-0.331596 -2.32889,-0.293912 -3.73071,0.113052 l -2.306256,1.560115 c -0.572814,1.673185 -0.88559,2.837618 -0.93833,3.4933 -0.05277,0.655717 0.418273,1.360406 1.413147,2.114069 0.79888,0.768766 1.627926,0.716009 2.48714,-0.158273 l 1.017466,-1.514894 c 0.06027,-0.602925 0.06404,-1.24732 0.01131,-1.933185 -0.05278,-0.685829 0.614225,-0.591619 2.001017,0.282629 l 0.700921,0.791363 c 0.195931,0.889357 0.06027,2.042484 -0.406986,3.459384 -0.437158,1.567665 -1.499844,2.766013 -3.188061,3.595048 -2.562526,0.150746 -4.371353,-0.248703 -5.426486,-1.198349 -1.688255,-1.145579 -2.539911,-2.652935 -2.554971,-4.522072 -0.271337,-1.522413 -0.06784,-3.07499 0.61048,-4.657734 1.311385,-2.230866 3.308632,-3.775905 5.991745,-4.635124 z m -2.147984,23.605215 c 1.778657,2e-6 3.451822,-0.354226 5.0195,-1.062687 1.567622,-0.708454 2.935547,-1.643014 4.10378,-2.803684 1.168169,-1.160658 2.095193,-2.543657 2.781074,-4.149001 0.685812,-1.605324 1.028736,-3.312404 1.028771,-5.121246 -3.5e-5,-1.808812 -0.342959,-3.515892 -1.028771,-5.121247 -0.685881,-1.605313 -1.612905,-3.003386 -2.781074,-4.194221 -1.168233,-1.190787 -2.536158,-2.136652 -4.10378,-2.8376 -1.567678,-0.700893 -3.240843,-1.051353 -5.0195,-1.051382 -1.793776,2.9e-5 -3.474478,0.350489 -5.04211,1.051382 -1.567668,0.700948 -2.935593,1.646813 -4.10378,2.8376 -1.168214,1.190835 -2.083933,2.588908 -2.747159,4.194221 -0.663247,1.605355 -0.994865,3.312435 -0.994856,5.121247 -9e-6,1.808842 0.331609,3.515922 0.994856,5.121246 0.663226,1.605344 1.578945,2.988343 2.747159,4.149001 1.168187,1.16067 2.536112,2.09523 4.10378,2.803684 1.567632,0.708461 3.248334,1.062689 5.04211,1.062687 z M 10.50522,29.896893 1.1445312,24.832172 10.595661,19.609179 c 0.09043,-0.25623 0.188412,-0.51248 0.293935,-0.768752 0.33161,-0.783803 0.715986,-1.522408 1.153128,-2.215815 l -1.92188,-6.579615 6.466562,1.87666 c 0.783811,-0.512472 1.627931,-0.957142 2.532361,-1.334011 0.286381,-0.120559 0.572778,-0.23361 0.859193,-0.339155 l 5.109941,-9.42851997 5.200383,9.42851997 c 0.28637,0.105545 0.572767,0.218596 0.859193,0.339155 0.859165,0.361795 1.6656,0.791392 2.419309,1.288791 l 6.376121,-1.786219 -1.87666,6.240459 c 0.512466,0.783849 0.957136,1.620432 1.334011,2.50975 0.105479,0.271346 0.210993,0.54267 0.316545,0.813973 l 9.157196,5.177772 -9.089364,5.04211 c -0.120626,0.331629 -0.248751,0.663247 -0.384377,0.994856 -0.376875,0.889349 -0.814009,1.718395 -1.3114,2.487139 l 1.854049,6.195239 -6.353511,-1.786219 c -0.768782,0.49743 -1.582754,0.927027 -2.441919,1.288791 -0.301499,0.12059 -0.60297,0.233641 -0.904414,0.339155 l -5.155162,9.383299 -5.06472,-9.360688 c -0.316562,-0.120588 -0.618033,-0.241176 -0.904414,-0.361766 -0.874283,-0.361764 -1.695792,-0.791361 -2.46453,-1.288791 l -6.30829,1.83144 1.831439,-6.28568 C 11.680949,32.557386 11.251353,31.743414 10.889596,30.869138 10.753926,30.552603 10.6258,30.228521 10.50522,29.896893 z"
     style="font-variant:normal;font-stretch:normal;font-family:x21;-inkscape-font-specification:x21;fill:#917354;fill-opacity:1"
     id="path3886" /></g></svg>