<?xml version="1.0" encoding="UTF-8" standalone="no"?>
<!-- Generator: Adobe Illustrator 16.0.0, SVG Export Plug-In . SVG Version: 6.00 Build 0)  -->

<svg
   xmlns:dc="http://purl.org/dc/elements/1.1/"
   xmlns:cc="http://creativecommons.org/ns#"
   xmlns:rdf="http://www.w3.org/1999/02/22-rdf-syntax-ns#"
   xmlns:svg="http://www.w3.org/2000/svg"
   xmlns="http://www.w3.org/2000/svg"
   xmlns:sodipodi="http://sodipodi.sourceforge.net/DTD/sodipodi-0.dtd"
   xmlns:inkscape="http://www.inkscape.org/namespaces/inkscape"
   version="1.1"
   id="Capa_1"
   x="0px"
   y="0px"
   width="49.652px"
   height="49.652px"
   viewBox="0 0 49.652 49.652"
   style="enable-background:new 0 0 49.652 49.652;"
   xml:space="preserve"
   inkscape:version="0.48.4 r9939"
   sodipodi:docname="Hots.svg"><metadata
   id="metadata3577"><rdf:RDF><cc:Work
       rdf:about=""><dc:format>image/svg+xml</dc:format><dc:type
         rdf:resource="http://purl.org/dc/dcmitype/StillImage" /><dc:title></dc:title></cc:Work></rdf:RDF></metadata><defs
   id="defs3575" /><sodipodi:namedview
   pagecolor="#ffffff"
   bordercolor="#666666"
   borderopacity="1"
   objecttolerance="10"
   gridtolerance="10"
   guidetolerance="10"
   inkscape:pageopacity="0"
   inkscape:pageshadow="2"
   inkscape:window-width="1644"
   inkscape:window-height="940"
   id="namedview3573"
   showgrid="false"
   inkscape:zoom="11.78004"
   inkscape:cx="28.545277"
   inkscape:cy="26.997165"
   inkscape:window-x="52"
   inkscape:window-y="24"
   inkscape:window-maximized="0"
   inkscape:current-layer="Capa_1"
   inkscape:snap-page="false" />

<g
   id="g3543">
</g>
<g
   id="g3545">
</g>
<g
   id="g3547">
</g>
<g
   id="g3549">
</g>
<g
   id="g3551">
</g>
<g
   id="g3553">
</g>
<g
   id="g3555">
</g>
<g
   id="g3557">
</g>
<g
   id="g3559">
</g>
<g
   id="g3561">
</g>
<g
   id="g3563">
</g>
<g
   id="g3565">
</g>
<g
   id="g3567">
</g>
<g
   id="g3569">
</g>
<g
   id="g3571">
</g>
<flowRoot
   xml:space="preserve"
   id="flowRoot3579"
   style="fill:black;stroke:none;stroke-opacity:1;stroke-width:1px;stroke-linejoin:miter;stroke-linecap:butt;fill-opacity:1;font-family:Sans;font-style:normal;font-weight:normal;font-size:40px;line-height:125%;letter-spacing:0px;word-spacing:0px"><flowRegion
     id="flowRegion3581"><rect
       id="rect3583"
       width="25.445755"
       height="40.481884"
       x="17.438351"
       y="7.0348086" /></flowRegion><flowPara
     id="flowPara3585" /></flowRoot><g
   transform="matrix(1.3121416,0,0,1.3121416,7.2433802,4.6302417)"
   style="font-size:40px;font-style:normal;font-weight:normal;line-height:125%;letter-spacing:0px;word-spacing:0px;fill:#8452aa;fill-opacity:1;stroke:none;font-family:Sans"
   id="flowRoot3002"><path
     d="m 22.640625,9.3379097 c 1.432262,2.5390803 2.148407,4.4987133 2.148437,5.8789063 -3e-5,1.640638 -0.338572,2.877616 -1.015625,3.710937 -0.63805,-2.018216 -1.214221,-3.502589 -1.728515,-4.453125 -0.514351,-0.950504 -1.305365,-1.848941 -2.373047,-2.695312 -1.067733,-0.846335 -2.376325,-1.406231 -3.925781,-1.679688 -1.5495,-0.2734172 -2.737649,-0.2571412 -3.564453,0.04883 -0.826841,0.306008 -1.68296,0.634784 -2.5683597,0.986328 L 9.4765625,10.861347 11.390625,4.3574409 c 1.106752,-0.2213286 2.802714,-0.117162 5.087891,0.3125 2.285131,0.4297121 4.339165,1.9857001 6.162109,4.6679688 z m 4.550781,13.6328123 0,-15.1953123 -13.847656,-7.61718754 -13.75,7.53906254 0,15.3515623 13.75,7.539063 z m 2.421875,1.386719 -16.269531,8.945312 -16.1523438,-8.867187 0,-18.1640626 L 13.34375,-2.5956841 29.613281,6.3496284 z M 18.539062,16.115253 c 2.382786,2.565116 3.87367,4.264333 4.472657,5.097657 -2.278673,3.489588 -5.09117,5.234378 -8.4375,5.234375 -3.242205,3e-6 -5.6640777,-0.807288 -7.2656253,-2.421875 l 0.1367188,-0.253907 c 1.6145682,0.325527 3.3105305,0.29623 5.0878905,-0.08789 1.777324,-0.384108 3.108702,-1.266269 3.994141,-2.646485 0.885393,-1.380198 1.555965,-3.020821 2.011718,-4.921875 z M 8.4609375,5.1386909 l 0,0.1367188 C 7.2499867,6.2650164 6.3515501,8.0879313 5.765625,10.74416 l 0,1.015625 c -1.18e-5,3.281264 1.4518097,5.833345 4.355469,7.65625 l 0,0.390625 C 8.2981628,20.145211 6.2148315,20.61396 3.8710938,21.21291 2.5950435,19.390003 1.9570233,17.469432 1.9570312,15.451191 1.9570233,10.373085 4.1249898,6.9355887 8.4609375,5.1386909 z"
     style="font-variant:normal;font-stretch:normal;font-family:x21;-inkscape-font-specification:x21;fill:#8452aa;fill-opacity:1"
     id="path3011" /></g></svg>