<?xml version="1.0" encoding="UTF-8" standalone="no"?>
<!-- Generator: Adobe Illustrator 16.0.0, SVG Export Plug-In . SVG Version: 6.00 Build 0)  -->

<svg
   xmlns:dc="http://purl.org/dc/elements/1.1/"
   xmlns:cc="http://creativecommons.org/ns#"
   xmlns:rdf="http://www.w3.org/1999/02/22-rdf-syntax-ns#"
   xmlns:svg="http://www.w3.org/2000/svg"
   xmlns="http://www.w3.org/2000/svg"
   xmlns:sodipodi="http://sodipodi.sourceforge.net/DTD/sodipodi-0.dtd"
   xmlns:inkscape="http://www.inkscape.org/namespaces/inkscape"
   sodipodi:docname="Other_Games.svg"
   inkscape:version="0.48.4 r9939"
   xml:space="preserve"
   style="enable-background:new 0 0 49.652 49.652;"
   viewBox="0 0 49.652 49.652"
   height="49.652px"
   width="49.652px"
   y="0px"
   x="0px"
   id="Capa_1"
   version="1.1"><metadata
   id="metadata3577"><rdf:RDF><cc:Work
       rdf:about=""><dc:format>image/svg+xml</dc:format><dc:type
         rdf:resource="http://purl.org/dc/dcmitype/StillImage" /><dc:title /></cc:Work></rdf:RDF></metadata><defs
   id="defs3575" /><sodipodi:namedview
   pagecolor="#ffffff"
   bordercolor="#666666"
   borderopacity="1"
   objecttolerance="10"
   gridtolerance="10"
   guidetolerance="10"
   inkscape:pageopacity="0"
   inkscape:pageshadow="2"
   inkscape:window-width="1644"
   inkscape:window-height="940"
   id="namedview3573"
   showgrid="false"
   inkscape:zoom="8"
   inkscape:cx="20.016309"
   inkscape:cy="17.736514"
   inkscape:window-x="21"
   inkscape:window-y="22"
   inkscape:window-maximized="0"
   inkscape:current-layer="Capa_1"
   inkscape:snap-page="false" />

<g
   id="g3543">
</g>
<g
   id="g3545">
</g>
<g
   id="g3547">
</g>
<g
   id="g3549">
</g>
<g
   id="g3551">
</g>
<g
   id="g3553">
</g>
<g
   id="g3555">
</g>
<g
   id="g3557">
</g>
<g
   id="g3559">
</g>
<g
   id="g3561">
</g>
<g
   id="g3563">
</g>
<g
   id="g3565">
</g>
<g
   id="g3567">
</g>
<g
   id="g3569">
</g>
<g
   id="g3571">
</g>
<flowRoot
   xml:space="preserve"
   id="flowRoot3579"
   style="fill:black;stroke:none;stroke-opacity:1;stroke-width:1px;stroke-linejoin:miter;stroke-linecap:butt;fill-opacity:1;font-family:Sans;font-style:normal;font-weight:normal;font-size:40px;line-height:125%;letter-spacing:0px;word-spacing:0px"><flowRegion
     id="flowRegion3581"><rect
       id="rect3583"
       width="25.445755"
       height="40.481884"
       x="17.438351"
       y="7.0348086" /></flowRegion><flowPara
     id="flowPara3585" /></flowRoot><g
   transform="matrix(1.3235328,0,0,1.3235328,7.0754939,2.7354601)"
   style="font-size:40px;font-style:normal;font-weight:normal;line-height:125%;letter-spacing:0px;word-spacing:0px;fill:#ba5400;fill-opacity:1;stroke:none;font-family:Sans"
   id="flowRoot3679"><path
     d="M 26.929687,17.076191 C 26.929655,15.227248 26.578092,13.475947 25.875,11.822285 25.302052,10.5072 24.566376,9.3223057 23.667969,8.2675972 l 0.703125,-1.9921875 0.3125,-1.9726563 c 0.234344,0.2083592 0.462208,0.4232028 0.683593,0.6445313 1.523405,1.549503 2.724576,3.3463762 3.603516,5.3906253 0.878871,2.044289 1.318323,4.231786 1.318359,6.5625 -3.6e-5,2.096365 -0.358108,4.07553 -1.074218,5.9375 -0.117223,-2.356761 -0.885451,-4.062489 -2.304688,-5.117188 0.01299,-0.20832 0.0195,-0.423164 0.01953,-0.644531 z M -3.3242188,16.90041 c -2.6e-6,-2.330714 0.4361949,-4.518211 1.3085938,-6.5625 C -1.143234,8.2936609 0.05468145,6.4967877 1.578125,4.9472847 1.9557212,4.5566855 2.3528562,4.1921025 2.7695313,3.8535347 L 2.90625,5.9433784 3.4140625,8.0136909 C 2.4244707,9.1335038 1.6367111,10.403034 1.0507812,11.822285 0.36067072,13.475947 0.01561898,15.227248 0.015625,17.076191 c -6.02e-6,0.299492 0.0065044,0.592461 0.01953125,0.878906 -1.34115055,1.145845 -2.03125405,2.949228 -2.07031255,5.410156 -0.8593781,-2.01822 -1.2890651,-4.173165 -1.2890625,-6.464843 z M 15.796875,30.376972 c 1.002581,-0.16927 1.966122,-0.462239 2.890625,-0.878906 1.627578,-0.703123 3.053358,-1.660154 4.277344,-2.871094 0.533824,-0.53385 1.022105,-1.106766 1.464843,-1.71875 1.041636,0.494797 1.816375,1.250004 2.324219,2.265625 -0.42972,0.546878 -0.891959,1.067711 -1.386719,1.5625 -1.536488,1.510417 -3.32685,2.695312 -5.371093,3.554688 -1.601587,0.67708 -3.287783,1.093747 -5.058594,1.25 l 0.859375,-3.164063 z M 6.9296875,32.291035 C 4.8854058,31.431659 3.1015534,30.246764 1.578125,28.736347 1.1484304,28.306662 0.74478492,27.863954 0.3671875,27.408222 0.84895148,26.37958 1.5911382,25.611352 2.59375,25.103535 c 0.390616,0.546879 0.8268135,1.054691 1.3085938,1.523437 1.2239472,1.21094 2.6562374,2.167971 4.296875,2.871094 1.0416514,0.45573 2.1354002,0.768229 3.2812502,0.9375 l 0.78125,3.125 C 10.399723,33.443375 8.6223812,33.020199 6.9296875,32.291035 z M 18.6875,4.5957222 C 17.059873,3.8926237 15.321593,3.5410615 13.472656,3.5410347 11.584618,3.5410615 9.8268071,3.8926237 8.1992188,4.5957222 7.951809,4.7129353 7.7109238,4.8301227 7.4765625,4.9472847 L 4.8398437,2.4082222 C 5.4908739,2.0046047 6.1874878,1.6465322 6.9296875,1.3340034 8.9609225,0.47465833 11.122379,0.04497126 13.414063,0.04494091 c 2.330707,3.035e-5 4.524715,0.42971742 6.582031,1.28906249 0.703098,0.3125288 1.380181,0.6575805 2.03125,1.0351563 L 19.488281,4.9863472 C 19.227839,4.8561644 18.960913,4.7259562 18.6875,4.5957222 z m -7.285156,13.3007808 2.148437,-6.914062 2.363282,6.972656 -1.308594,0.664063 -1.035156,0.878906 -0.898438,-0.878906 z m 4.179687,-3.515625 c 0.924457,-3.346334 2.962215,-6.5950291 6.113281,-9.7460933 L 23.375,2.9550972 23.277344,5.4160347 C 21.220025,10.429075 20.230443,13.925166 20.308594,15.904316 20.061172,16.85485 18.895808,17.33011 16.8125,17.330097 L 16.226562,16.451191 z M 28.355469,27.36916 26.734375,24.966816 C 24.494761,22.987657 22.09893,22.447293 19.546875,23.345722 18.895808,21.314481 18.733048,19.634795 19.058594,18.30666 L 20.25,17.99416 c 2.031222,-0.598946 3.964814,-0.318998 5.800781,0.839843 1.835904,1.158865 2.604132,4.003914 2.304688,8.535157 z M 8.9609375,20.689472 8.84375,18.990253 l 0.058594,-1.113281 1.132812,0.05859 2.109375,1.25 1.425782,1.210937 1.386718,-1.210937 2.109375,-1.25 1.132813,-0.05859 0.05859,1.015625 -0.136718,1.601563 0.46875,2.773437 -1.503907,2.1875 -0.117187,1.015625 2.226562,3.945313 -2.148437,-1.132813 -1.484375,-0.859375 -0.292969,0.117188 -1.640625,5.800781 -1.601562,-5.78125 L 11.734375,28.46291 10.25,29.322285 8.1015625,30.455097 10.328125,26.529316 10.230469,25.513691 8.6289063,23.30666 z m 7.1289065,1.816406 c 0.104144,8e-6 0.325498,-0.104158 0.664062,-0.3125 0.338519,-0.208325 0.507789,-0.364574 0.507813,-0.46875 -2.4e-5,-0.104157 -0.169294,-0.260407 -0.507813,-0.46875 -0.338564,-0.208324 -0.559918,-0.31249 -0.664062,-0.3125 -0.104189,10e-6 -0.292991,0.104176 -0.566406,0.3125 -0.273459,0.208343 -0.410178,0.364593 -0.410157,0.46875 -2.1e-5,0.104176 0.136698,0.260425 0.410157,0.46875 0.273415,0.208342 0.462217,0.312508 0.566406,0.3125 z m -5.078125,0 c 0.104149,8e-6 0.292951,-0.104158 0.566406,-0.3125 0.27342,-0.208325 0.410138,-0.364574 0.410156,-0.46875 -1.8e-5,-0.104157 -0.136736,-0.260407 -0.410156,-0.46875 -0.273455,-0.208324 -0.462257,-0.31249 -0.566406,-0.3125 -0.104184,10e-6 -0.325538,0.104176 -0.664063,0.3125 -0.338557,0.208343 -0.5078281,0.364593 -0.5078122,0.46875 -1.59e-5,0.104176 0.1692552,0.260425 0.5078122,0.46875 0.338525,0.208342 0.559879,0.312508 0.664063,0.3125 z m -0.05859,-6.054687 -0.566406,0.878906 C 8.2903503,17.33011 7.1249869,16.85485 6.890625,15.904316 6.968737,13.925166 5.9791547,10.429075 3.921875,5.4160347 L 3.8046875,2.9550972 5.484375,4.6347847 c 3.1640479,3.1510642 5.208317,6.3997593 6.132813,9.7460933 z m -4.0234375,1.542969 1.1914063,0.3125 C 8.459621,19.634795 8.3033711,21.314481 7.6523437,23.345722 5.1002493,22.447293 2.697908,22.987657 0.4453125,24.966816 L -1.15625,27.36916 c -0.3125045,-4.531243 0.44921346,-7.376292 2.2851562,-8.535157 1.8359286,-1.158841 3.7695204,-1.438789 5.8007813,-0.839843 z m 6.6601565,5.390625 c -0.651061,1.536463 -0.839863,2.180994 -0.566406,1.933593 0.273418,-0.24739 0.46222,-0.371088 0.566406,-0.371093 0.104147,5e-6 0.292949,0.123703 0.566406,0.371093 0.273417,0.247401 0.08461,-0.39713 -0.566406,-1.933593 z"
     style="font-variant:normal;font-stretch:normal;fill:#ba5400;font-family:x21;-inkscape-font-specification:x21;fill-opacity:1"
     id="path3919"
     inkscape:connector-curvature="0" /></g></svg>