<?xml version="1.0" encoding="UTF-8" standalone="no"?>
<!-- Generator: Adobe Illustrator 16.0.0, SVG Export Plug-In . SVG Version: 6.00 Build 0)  -->

<svg
   xmlns:dc="http://purl.org/dc/elements/1.1/"
   xmlns:cc="http://creativecommons.org/ns#"
   xmlns:rdf="http://www.w3.org/1999/02/22-rdf-syntax-ns#"
   xmlns:svg="http://www.w3.org/2000/svg"
   xmlns="http://www.w3.org/2000/svg"
   xmlns:sodipodi="http://sodipodi.sourceforge.net/DTD/sodipodi-0.dtd"
   xmlns:inkscape="http://www.inkscape.org/namespaces/inkscape"
   version="1.1"
   id="Capa_1"
   x="0px"
   y="0px"
   width="49.652px"
   height="49.652px"
   viewBox="0 0 49.652 49.652"
   style="enable-background:new 0 0 49.652 49.652;"
   xml:space="preserve"
   inkscape:version="0.48.4 r9939"
   sodipodi:docname="Overwatch.svg"><metadata
   id="metadata3577"><rdf:RDF><cc:Work
       rdf:about=""><dc:format>image/svg+xml</dc:format><dc:type
         rdf:resource="http://purl.org/dc/dcmitype/StillImage" /><dc:title></dc:title></cc:Work></rdf:RDF></metadata><defs
   id="defs3575" /><sodipodi:namedview
   pagecolor="#ffffff"
   bordercolor="#666666"
   borderopacity="1"
   objecttolerance="10"
   gridtolerance="10"
   guidetolerance="10"
   inkscape:pageopacity="0"
   inkscape:pageshadow="2"
   inkscape:window-width="938"
   inkscape:window-height="744"
   id="namedview3573"
   showgrid="false"
   inkscape:zoom="8"
   inkscape:cx="11.429001"
   inkscape:cy="21.279038"
   inkscape:window-x="357"
   inkscape:window-y="149"
   inkscape:window-maximized="0"
   inkscape:current-layer="Capa_1"
   inkscape:snap-page="false"
   showguides="true"
   inkscape:guide-bbox="true" />

<g
   id="g3543">
</g>
<g
   id="g3545">
</g>
<g
   id="g3547">
</g>
<g
   id="g3549">
</g>
<g
   id="g3551">
</g>
<g
   id="g3553">
</g>
<g
   id="g3555">
</g>
<g
   id="g3557">
</g>
<g
   id="g3559">
</g>
<g
   id="g3561">
</g>
<g
   id="g3563">
</g>
<g
   id="g3565">
</g>
<g
   id="g3567">
</g>
<g
   id="g3569">
</g>
<g
   id="g3571">
</g>
<flowRoot
   xml:space="preserve"
   id="flowRoot3579"
   style="fill:black;stroke:none;stroke-opacity:1;stroke-width:1px;stroke-linejoin:miter;stroke-linecap:butt;fill-opacity:1;font-family:Sans;font-style:normal;font-weight:normal;font-size:40px;line-height:125%;letter-spacing:0px;word-spacing:0px"><flowRegion
     id="flowRegion3581"><rect
       id="rect3583"
       width="25.445755"
       height="40.481884"
       x="17.438351"
       y="7.0348086" /></flowRegion><flowPara
     id="flowPara3585" /></flowRoot><g
   style="font-size:54.83628464000000200px;font-style:normal;font-weight:normal;line-height:125%;letter-spacing:0px;word-spacing:0px;fill:#7f7f7f;fill-opacity:1;stroke:none;font-family:Sans"
   id="text3832"
   transform="matrix(0.94117656,0,0,0.94117656,1.7040049,1.7230465)"><path
     d="m 25.253633,1.6667942 c 3.016679,0.071445 5.845957,0.6694309 8.487843,1.7939605 1.963501,0.8390073 3.757459,1.8921771 5.381882,3.1595125 L 34.812497,11.520189 C 33.74144,10.734808 32.590093,10.074345 31.358454,9.5387999 29.269931,8.6463186 27.056489,8.2000602 24.718123,8.2000235 22.361851,8.2000602 20.14841,8.6463186 18.077791,9.5387999 16.846098,10.074345 15.694751,10.734808 14.623748,11.520189 L 10.286112,6.6202672 C 11.92833,5.3529318 13.722289,4.299762 15.667994,3.4607547 18.327675,2.3362251 21.165879,1.7382389 24.182612,1.6667942 z M 24.611021,48.416869 C 21.451484,48.381165 18.479403,47.774253 15.694769,46.596133 12.820847,45.382309 10.317338,43.722227 8.1842332,41.615884 6.0511074,39.509548 4.3776385,37.041739 3.1638214,34.21245 1.9499929,31.383183 1.3430815,28.362014 1.3430854,25.148934 c -3.9e-6,-3.248741 0.6069075,-6.301149 1.820736,-9.157231 1.2138171,-2.856025 2.8828234,-5.355072 5.0070241,-7.4971487 l 0.4819595,-0.455184 4.257309,4.8999217 c -1.731498,1.749365 -3.0434975,3.659351 -3.9360027,5.729964 -0.8925283,2.070665 -1.3387867,4.275181 -1.3387764,6.613555 -1.03e-5,2.338414 0.4462481,4.54293 1.3387764,6.613556 0.3034442,0.696176 0.6426005,1.356639 1.0174702,1.981389 l 9.2911085,-8.8627 4.257309,-9.906946 0,14.565888 -9.371435,8.943027 c 1.178105,0.910374 2.48118,1.677938 3.909227,2.302696 2.070619,0.89252 4.28406,1.338779 6.640332,1.338776 2.338366,3e-6 4.551808,-0.446256 6.640331,-1.338776 1.427993,-0.624758 2.731067,-1.392322 3.909227,-2.302696 l -9.371435,-8.943027 0,-14.565888 4.257309,9.906946 9.291109,8.8627 c 0.374815,-0.62475 0.713971,-1.285213 1.01747,-1.981389 0.892474,-2.070626 1.338732,-4.275142 1.338777,-6.613556 -4.5e-5,-2.338374 -0.446303,-4.54289 -1.338777,-6.613555 -0.89256,-2.070613 -2.204559,-3.980599 -3.936003,-5.729964 l 4.25731,-4.8999217 0.481959,0.455184 c 2.124146,2.1420767 3.793152,4.6411237 5.007024,7.4971487 1.213774,2.856082 1.820685,5.90849 1.820736,9.157231 -5.1e-5,3.21308 -0.606962,6.234249 -1.820736,9.063516 -1.213872,2.829289 -2.88734,5.297098 -5.020412,7.403434 -2.133159,2.106343 -4.627743,3.766425 -7.48376,4.980249 -2.802539,1.17812 -5.783545,1.785032 -8.943027,1.820736 z"
     style="font-variant:normal;font-stretch:normal;fill:#7f7f7f;fill-opacity:1;font-family:x21;-inkscape-font-specification:x21"
     id="path3837"
     inkscape:connector-curvature="0" /></g></svg>