<?xml version="1.0" encoding="UTF-8" standalone="no"?>
<!-- Generator: Adobe Illustrator 16.0.0, SVG Export Plug-In . SVG Version: 6.00 Build 0)  -->

<svg
   xmlns:dc="http://purl.org/dc/elements/1.1/"
   xmlns:cc="http://creativecommons.org/ns#"
   xmlns:rdf="http://www.w3.org/1999/02/22-rdf-syntax-ns#"
   xmlns:svg="http://www.w3.org/2000/svg"
   xmlns="http://www.w3.org/2000/svg"
   xmlns:sodipodi="http://sodipodi.sourceforge.net/DTD/sodipodi-0.dtd"
   xmlns:inkscape="http://www.inkscape.org/namespaces/inkscape"
   version="1.1"
   id="Capa_1"
   x="0px"
   y="0px"
   width="49.652px"
   height="49.652px"
   viewBox="0 0 49.652 49.652"
   style="enable-background:new 0 0 49.652 49.652;"
   xml:space="preserve"
   inkscape:version="0.48.4 r9939"
   sodipodi:docname="Starcraft_2.svg"><metadata
   id="metadata3577"><rdf:RDF><cc:Work
       rdf:about=""><dc:format>image/svg+xml</dc:format><dc:type
         rdf:resource="http://purl.org/dc/dcmitype/StillImage" /><dc:title></dc:title></cc:Work></rdf:RDF></metadata><defs
   id="defs3575" /><sodipodi:namedview
   pagecolor="#ffffff"
   bordercolor="#666666"
   borderopacity="1"
   objecttolerance="10"
   gridtolerance="10"
   guidetolerance="10"
   inkscape:pageopacity="0"
   inkscape:pageshadow="2"
   inkscape:window-width="1547"
   inkscape:window-height="940"
   id="namedview3573"
   showgrid="false"
   inkscape:zoom="8"
   inkscape:cx="50.682634"
   inkscape:cy="15.841538"
   inkscape:window-x="23"
   inkscape:window-y="77"
   inkscape:window-maximized="0"
   inkscape:current-layer="Capa_1"
   inkscape:snap-page="false"
   showguides="true"
   inkscape:guide-bbox="true" />

<g
   id="g3543">
</g>
<g
   id="g3545">
</g>
<g
   id="g3547">
</g>
<g
   id="g3549">
</g>
<g
   id="g3551">
</g>
<g
   id="g3553">
</g>
<g
   id="g3555">
</g>
<g
   id="g3557">
</g>
<g
   id="g3559">
</g>
<g
   id="g3561">
</g>
<g
   id="g3563">
</g>
<g
   id="g3565">
</g>
<g
   id="g3567">
</g>
<g
   id="g3569">
</g>
<g
   id="g3571">
</g>
<flowRoot
   xml:space="preserve"
   id="flowRoot3579"
   style="fill:black;stroke:none;stroke-opacity:1;stroke-width:1px;stroke-linejoin:miter;stroke-linecap:butt;fill-opacity:1;font-family:Sans;font-style:normal;font-weight:normal;font-size:40px;line-height:125%;letter-spacing:0px;word-spacing:0px"><flowRegion
     id="flowRegion3581"><rect
       id="rect3583"
       width="25.445755"
       height="40.481884"
       x="17.438351"
       y="7.0348086" /></flowRegion><flowPara
     id="flowPara3585" /></flowRoot><g
   transform="matrix(1.1298084,0,0,1.1298084,4.8415162,2.5502056)"
   style="font-size:40px;font-style:normal;font-weight:normal;line-height:125%;letter-spacing:0px;word-spacing:0px;fill:#006fbe;fill-opacity:1;stroke:none;font-family:Sans"
   id="flowRoot3003"><path
     d="m 6.6523437,23.447285 1.25,0.917968 4.2187503,0 c 1.132794,7e-6 1.458315,-0.325513 0.976562,-0.976562 l -7.8515623,-8.4375 5.0781253,0 7.109375,7.851562 c 1.14581,2.213548 0.592425,3.50912 -1.660156,3.886719 l -12.2070317,0 z m 11.5820313,-11.40625 -3.144531,3.027343 -1.132813,-0.9375 -9.0624998,0 c -9.3e-6,-0.716127 0.2083238,-1.243471 0.625,-1.582031 0.4166563,-0.338522 0.9895724,-0.507793 1.71875,-0.507812 z m 0.644531,2.792968 4.414063,0 c -0.768256,2.096369 -1.110053,3.69142 -1.025391,4.785157 0.08461,1.09376 0.380832,2.031259 0.888672,2.8125 0.507784,0.781258 1.123018,1.422533 1.845703,1.923828 0.722626,0.501308 1.793589,0.719407 3.212891,0.654297 l 2.011718,-0.234375 c -1.171908,1.367192 -2.708365,2.050785 -4.609375,2.050781 -1.809924,4e-6 -3.307318,-0.462235 -4.492187,-1.386719 -0.8594,-0.638014 -1.539738,-1.432284 -2.041016,-2.382812 -0.501325,-0.950512 -0.810569,-2.014964 -0.927734,-3.19336 -0.11721,-1.178372 0.123675,-2.854803 0.722656,-5.029297 z m 12.636719,-2.792968 -3.105469,3.027343 -1.152344,-0.9375 -8.378906,0 c 0.468726,-0.950502 1.256486,-1.647116 2.363281,-2.089843 z m 1.386719,-3.7695316 -3.535157,-3.4960937 -23.3593745,0 -3.4765625,3.4765625 0,22.5390628 3.4960937,3.496093 23.3593753,0 3.515625,-3.476562 z M 20.304687,2.3925972 18.488281,0.57619091 l 14.101563,0 4.492187,4.51171879 0,28.9062503 -4.472656,4.492187 -12.441406,0 -1.816407,-1.816406 -3.222656,0 1.796875,1.816406 -14.082031,0 -4.5117187,-4.511719 0,-28.9062496 4.4921875,-4.49218749 12.4218752,0 1.816406,1.81640629 z"
     style="font-variant:normal;font-stretch:normal;fill:#006fbe;fill-opacity:1;font-family:x21;-inkscape-font-specification:x21"
     id="path3012"
     inkscape:connector-curvature="0" /></g></svg>