<?xml version="1.0" encoding="UTF-8" standalone="no"?>
<!-- Generator: Adobe Illustrator 16.0.0, SVG Export Plug-In . SVG Version: 6.00 Build 0)  -->

<svg
   xmlns:dc="http://purl.org/dc/elements/1.1/"
   xmlns:cc="http://creativecommons.org/ns#"
   xmlns:rdf="http://www.w3.org/1999/02/22-rdf-syntax-ns#"
   xmlns:svg="http://www.w3.org/2000/svg"
   xmlns="http://www.w3.org/2000/svg"
   xmlns:sodipodi="http://sodipodi.sourceforge.net/DTD/sodipodi-0.dtd"
   xmlns:inkscape="http://www.inkscape.org/namespaces/inkscape"
   version="1.1"
   id="Capa_1"
   x="0px"
   y="0px"
   width="49.652px"
   height="49.652px"
   viewBox="0 0 49.652 49.652"
   style="enable-background:new 0 0 49.652 49.652;"
   xml:space="preserve"
   inkscape:version="0.48.4 r9939"
   sodipodi:docname="WoW.svg"><metadata
   id="metadata3577"><rdf:RDF><cc:Work
       rdf:about=""><dc:format>image/svg+xml</dc:format><dc:type
         rdf:resource="http://purl.org/dc/dcmitype/StillImage" /><dc:title /></cc:Work></rdf:RDF></metadata><defs
   id="defs3575" /><sodipodi:namedview
   pagecolor="#ffffff"
   bordercolor="#666666"
   borderopacity="1"
   objecttolerance="10"
   gridtolerance="10"
   guidetolerance="10"
   inkscape:pageopacity="0"
   inkscape:pageshadow="2"
   inkscape:window-width="1644"
   inkscape:window-height="940"
   id="namedview3573"
   showgrid="false"
   inkscape:zoom="11.780041"
   inkscape:cx="40.656828"
   inkscape:cy="26.721278"
   inkscape:window-x="500"
   inkscape:window-y="43"
   inkscape:window-maximized="0"
   inkscape:current-layer="Capa_1"
   inkscape:snap-page="false" />

<g
   id="g3543">
</g>
<g
   id="g3545">
</g>
<g
   id="g3547">
</g>
<g
   id="g3549">
</g>
<g
   id="g3551">
</g>
<g
   id="g3553">
</g>
<g
   id="g3555">
</g>
<g
   id="g3557">
</g>
<g
   id="g3559">
</g>
<g
   id="g3561">
</g>
<g
   id="g3563">
</g>
<g
   id="g3565">
</g>
<g
   id="g3567">
</g>
<g
   id="g3569">
</g>
<g
   id="g3571">
</g>
<flowRoot
   xml:space="preserve"
   id="flowRoot3579"
   style="fill:black;stroke:none;stroke-opacity:1;stroke-width:1px;stroke-linejoin:miter;stroke-linecap:butt;fill-opacity:1;font-family:Sans;font-style:normal;font-weight:normal;font-size:40px;line-height:125%;letter-spacing:0px;word-spacing:0px"><flowRegion
     id="flowRegion3581"><rect
       id="rect3583"
       width="25.445755"
       height="40.481884"
       x="17.438351"
       y="7.0348086" /></flowRegion><flowPara
     id="flowPara3585" /></flowRoot><g
   style="font-size:54.06613541px;font-style:normal;font-weight:normal;line-height:125%;letter-spacing:0px;word-spacing:0px;fill:#b77a11;fill-opacity:1;stroke:none;font-family:Sans"
   id="text3825"
   transform="matrix(0.93823413,0,0,0.93823413,1.5821745,1.3476361)"><path
     d="m 2.2513345,25.359987 c -3.6e-6,-3.150316 0.5895842,-6.107055 1.7687652,-8.870225 1.1791702,-2.763116 2.7983367,-5.187466 4.8575044,-7.273057 2.0591469,-2.0855225 4.4658969,-3.7134888 7.2202579,-4.8839039 2.754325,-1.1703365 5.680265,-1.7555244 8.777827,-1.7555654 3.150309,4.1e-5 6.111447,0.5852289 8.883425,1.7555654 2.771908,1.1704151 5.191858,2.7983814 7.259857,4.8839039 2.067915,2.085591 3.695881,4.509941 4.883904,7.273057 1.187928,2.76317 1.781916,5.719909 1.781965,8.870225 -4.9e-5,3.115154 -0.594037,6.049893 -1.781965,8.804227 -1.188023,2.754352 -2.815989,5.152303 -4.883904,7.193858 -2.067999,2.04156 -4.487949,3.647527 -7.259857,4.817905 -2.771978,1.170373 -5.733116,1.755561 -8.883425,1.755566 -3.097562,-5e-6 -6.023502,-0.585193 -8.777827,-1.755566 C 13.343501,45.005599 10.936751,43.399632 8.8776041,41.358072 6.8184364,39.316517 5.1992699,36.918566 4.0200997,34.164214 2.8409187,31.40988 2.2513309,28.475141 2.2513345,25.359987 z M 24.954888,43.839623 c 2.499121,0 4.848673,-0.47959 7.048661,-1.438771 2.199921,-0.959179 4.127081,-2.257153 5.781486,-3.893924 1.654326,-1.636761 2.961099,-3.568321 3.920323,-5.794686 0.959137,-2.226343 1.438727,-4.593494 1.438771,-7.10146 -4.4e-5,-2.50793 -0.479634,-4.875081 -1.438771,-7.10146 C 40.746134,16.282993 39.439361,14.338233 37.785035,12.675037 36.13063,11.011902 34.20347,9.7007293 32.003549,8.7415143 29.803561,7.782369 27.454009,7.3027789 24.954888,7.3027426 c -2.551974,3.63e-5 -4.932325,0.4796264 -7.14106,1.4387717 -2.208773,0.959215 -4.140333,2.2703877 -5.794686,3.9335227 -1.654379,1.663196 -2.9435523,3.607956 -3.8675236,5.834285 -0.9239904,2.226379 -1.3859809,4.59353 -1.3859727,7.10146 -8.2e-6,2.507966 0.4619823,4.875117 1.3859727,7.10146 0.9239713,2.226365 2.2131446,4.157925 3.8675236,5.794686 1.654353,1.636771 3.585913,2.934745 5.794686,3.893924 2.208735,0.959181 4.589086,1.438771 7.14106,1.438771 z m -12.143761,-29.43542 7.471053,0 -1.003181,1.478371 2.085559,10.295797 3.801525,-10.876586 3.880724,10.955784 2.085559,-10.374995 -1.02958,-1.478371 7.418254,0 -1.346373,1.451971 -4.171118,20.617994 1.187976,1.372773 -6.943063,0 0.765585,-1.187976 -1.927162,-8.315837 -2.006361,8.315837 0.791985,1.187976 -6.943063,0 1.161577,-1.372773 L 14.1575,15.856174 z m 33.289744,-0.448791 0,-9.820607 -10.612591,0 c 4.857463,1.9535991 8.39499,5.2271313 10.612591,9.820607 z m -32.048969,-9.820607 -10.3749955,0 0,10.084601 C 5.8064574,9.5379327 9.2647858,6.1764023 14.051902,4.134805 z M 46.100871,36.606166 C 43.88327,41.199678 40.345743,44.47321 35.48828,46.426772 l 10.612591,0 0,-9.820606 z M 14.051902,46.426772 C 9.2647858,44.385212 5.8064574,41.023681 3.6769065,36.342171 l 0,10.084601 10.3749955,0 z"
     style="font-variant:normal;font-stretch:normal;fill:#b77a11;font-family:x21;-inkscape-font-specification:x21"
     id="path3830"
     inkscape:connector-curvature="0" /></g></svg>