<?xml version="1.0" encoding="iso-8859-1"?>
<!-- Generator: Adobe Illustrator 19.0.0, SVG Export Plug-In . SVG Version: 6.00 Build 0)  -->
<svg version="1.1" id="Layer_1" xmlns="http://www.w3.org/2000/svg" xmlns:xlink="http://www.w3.org/1999/xlink" x="0px" y="0px"
	 viewBox="0 0 512 512" style="enable-background:new 0 0 512 512;" xml:space="preserve">
<circle style="fill:#F9B54C;" cx="256" cy="256" r="256"/>
<path style="fill:#F4A200;" d="M504.732,316.735l-92.517-92.517L174.739,331.036l-64.695,32.203l149.482,148.714
	C378.421,510.348,477.729,427.703,504.732,316.735z"/>
<path style="fill:#3C5668;" d="M256,178.966c-53.508,0-182.486,2.412-170.758,105.587c19.537,171.865,95.463,37.514,170.758,37.514
	h-0.091c75.295,0,151.221,134.351,170.758-37.514c11.729-103.177-117.25-105.587-170.758-105.587H256z"/>
<g>
	<path style="fill:#324A5E;" d="M255.909,178.966c0.016,0,0.031,0,0.045,0s0.031,0,0.045,0H255.909z"/>
	<path style="fill:#324A5E;" d="M255.909,322.067c0.016,0,0.031,0,0.045,0s0.031,0,0.045,0H255.909z"/>
	<path style="fill:#324A5E;" d="M256,178.966v143.103c75.264,0.109,151.137,134.28,170.667-37.514
		C438.389,181.434,309.563,178.967,256,178.966z"/>
</g>
<circle style="fill:#84DBFF;" cx="168.701" cy="265.085" r="42.667"/>
<path id="SVGCleanerId_0" style="fill:#557184;" d="M255.909,178.966c0.016,0,0.031,0,0.045,0c0.016,0,0.031,0,0.045,0H255.909z"/>
<path style="fill:#557184;" d="M255.955,178.966c-11.786,0-27.229,0.121-44.018,1.405c10.269,12.976,26.131,21.321,43.965,21.321
	c17.837,0,33.701-8.349,43.97-21.33C283.12,179.085,267.717,178.966,255.955,178.966z"/>
<g>
	<path id="SVGCleanerId_0_1_" style="fill:#557184;" d="M255.909,178.966c0.016,0,0.031,0,0.045,0c0.016,0,0.031,0,0.045,0H255.909z
		"/>
</g>
<path style="fill:#476372;" d="M299.87,180.364c-16.729-1.276-32.111-1.396-43.87-1.398v22.725
	C273.796,201.657,289.62,193.319,299.87,180.364z"/>
<g>
	<circle style="fill:#FC6F58;" cx="367.847" cy="241.054" r="10.447"/>
	<circle style="fill:#FC6F58;" cx="347.557" cy="261.361" r="10.447"/>
	<circle style="fill:#FC6F58;" cx="327.542" cy="281.376" r="10.447"/>
</g>
<path style="fill:#2B3B4E;" d="M350.63,229.791l-38.664,38.662c-3.558,3.558-9.328,3.558-12.888,0l0,0
	c-3.558-3.558-3.558-9.328,0-12.888l38.664-38.662c3.558-3.558,9.328-3.558,12.888,0l0,0
	C354.188,220.463,354.188,226.233,350.63,229.791z"/>
<g>
</g>
<g>
</g>
<g>
</g>
<g>
</g>
<g>
</g>
<g>
</g>
<g>
</g>
<g>
</g>
<g>
</g>
<g>
</g>
<g>
</g>
<g>
</g>
<g>
</g>
<g>
</g>
<g>
</g>
</svg>
