<?xml version="1.0" encoding="UTF-8" standalone="no"?>
<!-- Generator: Adobe Illustrator 16.0.0, SVG Export Plug-In . SVG Version: 6.00 Build 0)  -->

<svg
   xmlns:dc="http://purl.org/dc/elements/1.1/"
   xmlns:cc="http://creativecommons.org/ns#"
   xmlns:rdf="http://www.w3.org/1999/02/22-rdf-syntax-ns#"
   xmlns:svg="http://www.w3.org/2000/svg"
   xmlns="http://www.w3.org/2000/svg"
   xmlns:sodipodi="http://sodipodi.sourceforge.net/DTD/sodipodi-0.dtd"
   xmlns:inkscape="http://www.inkscape.org/namespaces/inkscape"
   version="1.1"
   id="Capa_1"
   x="0px"
   y="0px"
   width="49.652px"
   height="49.652px"
   viewBox="0 0 49.652 49.652"
   style="enable-background:new 0 0 49.652 49.652;"
   xml:space="preserve"
   inkscape:version="0.48.4 r9939"
   sodipodi:docname="steam.svg"><metadata
   id="metadata3577"><rdf:RDF><cc:Work
       rdf:about=""><dc:format>image/svg+xml</dc:format><dc:type
         rdf:resource="http://purl.org/dc/dcmitype/StillImage" /><dc:title></dc:title></cc:Work></rdf:RDF></metadata><defs
   id="defs3575" /><sodipodi:namedview
   pagecolor="#ffffff"
   bordercolor="#666666"
   borderopacity="1"
   objecttolerance="10"
   gridtolerance="10"
   guidetolerance="10"
   inkscape:pageopacity="0"
   inkscape:pageshadow="2"
   inkscape:window-width="1644"
   inkscape:window-height="940"
   id="namedview3573"
   showgrid="false"
   inkscape:zoom="9.6079734"
   inkscape:cx="33.75"
   inkscape:cy="25.625"
   inkscape:window-x="17"
   inkscape:window-y="38"
   inkscape:window-maximized="0"
   inkscape:current-layer="Capa_1"
   inkscape:snap-page="false"
   showguides="true"
   inkscape:guide-bbox="true" />

<g
   id="g3543">
</g>
<g
   id="g3545">
</g>
<g
   id="g3547">
</g>
<g
   id="g3549">
</g>
<g
   id="g3551">
</g>
<g
   id="g3553">
</g>
<g
   id="g3555">
</g>
<g
   id="g3557">
</g>
<g
   id="g3559">
</g>
<g
   id="g3561">
</g>
<g
   id="g3563">
</g>
<g
   id="g3565">
</g>
<g
   id="g3567">
</g>
<g
   id="g3569">
</g>
<g
   id="g3571">
</g>
<flowRoot
   xml:space="preserve"
   id="flowRoot3579"
   style="fill:black;stroke:none;stroke-opacity:1;stroke-width:1px;stroke-linejoin:miter;stroke-linecap:butt;fill-opacity:1;font-family:Sans;font-style:normal;font-weight:normal;font-size:40px;line-height:125%;letter-spacing:0px;word-spacing:0px"><flowRegion
     id="flowRegion3581"><rect
       id="rect3583"
       width="25.445755"
       height="40.481884"
       x="17.438351"
       y="7.0348086" /></flowRegion><flowPara
     id="flowPara3585" /></flowRoot><g
   style="font-size:47.22601699999999900px;font-style:normal;font-weight:normal;line-height:125%;letter-spacing:0px;word-spacing:0px;fill:#8f8f8f;fill-opacity:1;stroke:none;font-family:Sans"
   id="text3002"><path
     d="m 19.457869,4.3150947 c 2.182954,4.24e-5 4.227568,0.4151144 6.133848,1.2452173 1.906233,0.8301851 3.574208,1.9601033 5.003929,3.389758 1.429663,1.42973 2.559582,3.097705 3.389758,5.003929 0.830112,1.906289 1.245184,3.950903 1.245217,6.133848 -3.3e-5,0.707186 -0.04615,1.406659 -0.138357,2.098421 -0.09227,0.691811 -0.230629,1.368225 -0.415073,2.029243 -0.184509,0.661063 -0.407418,1.306731 -0.668727,1.937005 -0.261374,0.630315 -0.561149,1.23755 -0.899324,1.821706 l 12.406053,12.406054 c 0.184433,0.184482 0.32279,0.399705 0.415073,0.645668 0.09219,0.245974 0.138313,0.491943 0.138357,0.737906 -4.4e-5,0.245974 -0.04616,0.491942 -0.138357,0.737907 -0.09228,0.245973 -0.23064,0.461195 -0.415073,0.645668 l -2.997745,2.997745 c -0.184517,0.184477 -0.39974,0.322835 -0.645668,0.415073 -0.246009,0.09224 -0.491977,0.138357 -0.737907,0.138357 -0.246008,0 -0.491976,-0.04612 -0.737906,-0.138357 -0.246007,-0.09224 -0.46123,-0.230596 -0.645668,-0.415073 L 27.298126,33.692998 c -0.584201,0.33822 -1.183749,0.637994 -1.798647,0.899323 -0.614945,0.261354 -1.252926,0.484263 -1.913945,0.668728 -0.661062,0.184488 -1.337476,0.322845 -2.029243,0.415073 -0.691806,0.09225 -1.39128,0.138368 -2.098422,0.138357 -2.182989,1.1e-5 -4.227602,-0.415061 -6.133847,-1.245217 C 11.417753,33.73913 9.7497788,32.609212 8.320093,31.179504 6.8903939,29.749827 5.7604757,28.081852 4.9303349,26.175575 4.1001877,24.269339 3.6851157,22.224725 3.6851177,20.041727 c -2e-6,-2.182944 0.41507,-4.227558 1.2452172,-6.133848 C 5.7604757,12.001656 6.8903939,10.333681 8.320093,8.9039509 9.7497788,7.4742962 11.417753,6.344378 13.324022,5.5141928 15.230267,4.68409 17.27488,4.269018 19.457869,4.2689756 z M 12.032685,27.420793 c 0.491927,0.491956 1.022297,0.930087 1.591111,1.314395 0.568791,0.384344 1.168339,0.707178 1.798647,0.968503 0.630281,0.261358 1.283635,0.461208 1.960064,0.599549 0.676398,0.138374 1.368185,0.207552 2.075362,0.207536 0.707142,1.6e-5 1.398929,-0.06916 2.075363,-0.207536 0.676393,-0.138341 1.329747,-0.338191 1.960064,-0.599549 0.630272,-0.261325 1.229821,-0.584159 1.798647,-0.968503 0.568779,-0.384308 1.099148,-0.822439 1.591111,-1.314395 0.491912,-0.491918 0.930043,-1.022288 1.314396,-1.591111 0.384299,-0.568782 0.707133,-1.16833 0.968502,-1.798648 0.261314,-0.630271 0.461164,-1.283626 0.599549,-1.960064 0.138329,-0.676389 0.207508,-1.368175 0.207536,-2.075362 -2.8e-5,-0.707133 -0.06921,-1.39892 -0.207536,-2.075362 C 29.627116,17.243861 29.427266,16.590507 29.165952,15.960182 28.904583,15.329918 28.581749,14.73037 28.19745,14.161535 27.813097,13.592765 27.374966,13.062395 26.883054,12.570424 26.391091,12.078521 25.860722,11.640389 25.291943,11.256028 24.723117,10.871737 24.123568,10.548904 23.493296,10.287526 22.862979,10.02622 22.209625,9.8263709 21.533232,9.6879766 20.856798,9.5496562 20.165011,9.4804775 19.457869,9.4804404 c -0.707177,3.71e-5 -1.398964,0.069216 -2.075362,0.2075362 -0.676429,0.1383943 -1.329783,0.3382434 -1.960064,0.5995494 -0.630308,0.261378 -1.229856,0.584211 -1.798647,0.968502 -0.568814,0.384361 -1.099184,0.822493 -1.591111,1.314396 -0.491947,0.491971 -0.930079,1.022341 -1.314396,1.591111 -0.384335,0.568835 -0.707169,1.168383 -0.9685021,1.798647 -0.2613497,0.630325 -0.4611992,1.283679 -0.5995491,1.960064 -0.1383647,0.676442 -0.2075434,1.368229 -0.2075362,2.075362 -7.2e-6,0.707187 0.069172,1.398973 0.2075362,2.075362 0.1383499,0.676438 0.3381994,1.329793 0.5995491,1.960064 0.2613331,0.630318 0.5841671,1.229866 0.9685021,1.798648 0.384317,0.568823 0.822449,1.099193 1.314396,1.591111 z"
     style="font-variant:normal;font-stretch:normal;font-family:x22;-inkscape-font-specification:x22;fill:#8f8f8f;fill-opacity:1"
     id="path3786" /></g></svg>