<?xml version="1.0" encoding="UTF-8" standalone="no"?>
<!-- Generator: Adobe Illustrator 16.0.0, SVG Export Plug-In . SVG Version: 6.00 Build 0)  -->

<svg
   xmlns:dc="http://purl.org/dc/elements/1.1/"
   xmlns:cc="http://creativecommons.org/ns#"
   xmlns:rdf="http://www.w3.org/1999/02/22-rdf-syntax-ns#"
   xmlns:svg="http://www.w3.org/2000/svg"
   xmlns="http://www.w3.org/2000/svg"
   xmlns:sodipodi="http://sodipodi.sourceforge.net/DTD/sodipodi-0.dtd"
   xmlns:inkscape="http://www.inkscape.org/namespaces/inkscape"
   version="1.1"
   id="Capa_1"
   x="0px"
   y="0px"
   width="49.652px"
   height="49.652px"
   viewBox="0 0 49.652 49.652"
   style="enable-background:new 0 0 49.652 49.652;"
   xml:space="preserve"
   inkscape:version="0.48.4 r9939"
   sodipodi:docname="Diablo III.svg"><metadata
   id="metadata3577"><rdf:RDF><cc:Work
       rdf:about=""><dc:format>image/svg+xml</dc:format><dc:type
         rdf:resource="http://purl.org/dc/dcmitype/StillImage" /><dc:title></dc:title></cc:Work></rdf:RDF></metadata><defs
   id="defs3575" /><sodipodi:namedview
   pagecolor="#ffffff"
   bordercolor="#666666"
   borderopacity="1"
   objecttolerance="10"
   gridtolerance="10"
   guidetolerance="10"
   inkscape:pageopacity="0"
   inkscape:pageshadow="2"
   inkscape:window-width="1644"
   inkscape:window-height="940"
   id="namedview3573"
   showgrid="false"
   inkscape:zoom="8"
   inkscape:cx="11.429001"
   inkscape:cy="21.279038"
   inkscape:window-x="44"
   inkscape:window-y="13"
   inkscape:window-maximized="0"
   inkscape:current-layer="Capa_1"
   inkscape:snap-page="false"
   showguides="true"
   inkscape:guide-bbox="true" />

<g
   id="g3543">
</g>
<g
   id="g3545">
</g>
<g
   id="g3547">
</g>
<g
   id="g3549">
</g>
<g
   id="g3551">
</g>
<g
   id="g3553">
</g>
<g
   id="g3555">
</g>
<g
   id="g3557">
</g>
<g
   id="g3559">
</g>
<g
   id="g3561">
</g>
<g
   id="g3563">
</g>
<g
   id="g3565">
</g>
<g
   id="g3567">
</g>
<g
   id="g3569">
</g>
<g
   id="g3571">
</g>
<flowRoot
   xml:space="preserve"
   id="flowRoot3579"
   style="fill:black;stroke:none;stroke-opacity:1;stroke-width:1px;stroke-linejoin:miter;stroke-linecap:butt;fill-opacity:1;font-family:Sans;font-style:normal;font-weight:normal;font-size:40px;line-height:125%;letter-spacing:0px;word-spacing:0px"><flowRegion
     id="flowRegion3581"><rect
       id="rect3583"
       width="25.445755"
       height="40.481884"
       x="17.438351"
       y="7.0348086" /></flowRegion><flowPara
     id="flowPara3585" /></flowRoot><g
   style="font-size:77.15436554000000100px;font-style:normal;font-weight:normal;line-height:125%;letter-spacing:0px;word-spacing:0px;fill:#8f8f8f;fill-opacity:1;stroke:none;font-family:Sans"
   id="text3002"><path
     d="m 13.920486,41.683252 c -2.1e-5,1.557166 -0.552558,2.87572 -1.657613,3.955668 -1.105094,1.105086 -2.4362065,1.657623 -3.9933413,1.657614 -1.5320505,9e-6 -2.8506053,-0.552528 -3.9556681,-1.657614 -1.1050861,-1.105063 -1.6576233,-2.423618 -1.6576133,-3.955668 -1e-5,-1.557135 0.5525272,-2.888247 1.6576133,-3.993341 1.0799475,-1.105055 2.3985022,-1.657592 3.9556681,-1.657613 1.5571348,2.1e-5 2.8882473,0.552558 3.9933413,1.657613 1.105055,1.105094 1.657592,2.436206 1.657613,3.993341 z m 24.977219,5.613282 C 38.897659,37.275527 35.356398,28.723758 28.273911,21.6412 21.191353,14.533598 12.652141,10.979779 2.6562503,10.979733 l 0,-8.5894512 c 12.3818467,5.45e-5 22.9553997,4.395237 31.7206917,13.1855602 8.790323,8.790407 13.185505,19.36396 13.18556,31.720692 z m -15.257577,0 C 23.640097,41.419556 21.58064,36.459279 17.461751,32.415687 13.367928,28.296797 8.4327658,26.23734 2.6562503,26.23731 l 0,-8.589451 c 8.1624717,3.9e-5 15.1445327,2.90086 20.9462047,8.70247 5.80161,5.801671 8.70243,12.783733 8.70247,20.946205 z"
     style="font-variant:normal;font-stretch:normal;font-family:x22;-inkscape-font-specification:x22;fill:#8f8f8f;fill-opacity:1"
     id="path3007" /></g></svg>