<?xml version="1.0" encoding="UTF-8" standalone="no"?>
<!-- Generator: Adobe Illustrator 16.0.0, SVG Export Plug-In . SVG Version: 6.00 Build 0)  -->

<svg
   xmlns:dc="http://purl.org/dc/elements/1.1/"
   xmlns:cc="http://creativecommons.org/ns#"
   xmlns:rdf="http://www.w3.org/1999/02/22-rdf-syntax-ns#"
   xmlns:svg="http://www.w3.org/2000/svg"
   xmlns="http://www.w3.org/2000/svg"
   xmlns:sodipodi="http://sodipodi.sourceforge.net/DTD/sodipodi-0.dtd"
   xmlns:inkscape="http://www.inkscape.org/namespaces/inkscape"
   version="1.1"
   id="Capa_1"
   x="0px"
   y="0px"
   width="49.652px"
   height="49.652px"
   viewBox="0 0 49.652 49.652"
   style="enable-background:new 0 0 49.652 49.652;"
   xml:space="preserve"
   inkscape:version="0.48.4 r9939"
   sodipodi:docname="vk.svg"><metadata
   id="metadata3577"><rdf:RDF><cc:Work
       rdf:about=""><dc:format>image/svg+xml</dc:format><dc:type
         rdf:resource="http://purl.org/dc/dcmitype/StillImage" /><dc:title></dc:title></cc:Work></rdf:RDF></metadata><defs
   id="defs3575" /><sodipodi:namedview
   pagecolor="#ffffff"
   bordercolor="#666666"
   borderopacity="1"
   objecttolerance="10"
   gridtolerance="10"
   guidetolerance="10"
   inkscape:pageopacity="0"
   inkscape:pageshadow="2"
   inkscape:window-width="1644"
   inkscape:window-height="940"
   id="namedview3573"
   showgrid="false"
   inkscape:zoom="8"
   inkscape:cx="11.429001"
   inkscape:cy="36.735445"
   inkscape:window-x="87"
   inkscape:window-y="43"
   inkscape:window-maximized="0"
   inkscape:current-layer="Capa_1"
   inkscape:snap-page="false"
   showguides="true"
   inkscape:guide-bbox="true" />

<g
   id="g3543">
</g>
<g
   id="g3545">
</g>
<g
   id="g3547">
</g>
<g
   id="g3549">
</g>
<g
   id="g3551">
</g>
<g
   id="g3553">
</g>
<g
   id="g3555">
</g>
<g
   id="g3557">
</g>
<g
   id="g3559">
</g>
<g
   id="g3561">
</g>
<g
   id="g3563">
</g>
<g
   id="g3565">
</g>
<g
   id="g3567">
</g>
<g
   id="g3569">
</g>
<g
   id="g3571">
</g>
<flowRoot
   xml:space="preserve"
   id="flowRoot3579"
   style="fill:black;stroke:none;stroke-opacity:1;stroke-width:1px;stroke-linejoin:miter;stroke-linecap:butt;fill-opacity:1;font-family:Sans;font-style:normal;font-weight:normal;font-size:40px;line-height:125%;letter-spacing:0px;word-spacing:0px"><flowRegion
     id="flowRegion3581"><rect
       id="rect3583"
       width="25.445755"
       height="40.481884"
       x="17.438351"
       y="7.0348086" /></flowRegion><flowPara
     id="flowPara3585" /></flowRoot><g
   style="font-size:49.32212830000000300px;font-style:normal;font-weight:normal;line-height:125%;letter-spacing:0px;word-spacing:0px;fill:#8f8f8f;fill-opacity:1;stroke:none;font-family:Sans"
   id="text3002"><path
     d="m 28.976321,16.942783 c -3.3e-5,-0.883011 0.160521,-1.705849 0.481662,-2.468515 0.321073,-0.762593 0.77263,-1.434912 1.354672,-2.016957 0.581972,-0.581968 1.254291,-1.033526 2.016957,-1.354673 0.762593,-0.321067 1.575396,-0.481621 2.438411,-0.481661 0.883006,4e-5 1.700826,0.160594 2.453463,0.481661 0.752553,0.321147 1.424872,0.772705 2.016957,1.354673 0.591998,0.582045 1.043555,1.254364 1.354673,2.016957 0.311027,0.762666 0.466564,1.585504 0.46661,2.468515 -4.6e-5,0.86301 -0.155583,1.665778 -0.46661,2.408307 -0.311118,0.742592 -0.762675,1.404876 -1.354673,1.986853 -0.592085,0.582037 -1.264404,1.033594 -2.016957,1.354673 -0.752637,0.321136 -1.570457,0.481689 -2.453463,0.481661 -0.863015,2.8e-5 -1.675818,-0.160525 -2.438411,-0.481661 -0.762666,-0.321079 -1.434985,-0.772636 -2.016957,-1.354673 -0.582042,-0.581977 -1.033599,-1.244261 -1.354672,-1.986853 -0.321141,-0.742529 -0.481695,-1.545297 -0.481662,-2.408307 z m -17.851576,15.413165 4.244641,1.836334 c 0.52178,0.240847 0.983372,0.556937 1.384777,0.948271 0.401363,0.391365 0.712436,0.84794 0.933219,1.369724 0.220739,0.521814 0.33112,1.093787 0.331142,1.715919 -2.2e-5,0.58202 -0.110403,1.138941 -0.331142,1.670763 -0.220783,0.531845 -0.531856,0.993437 -0.933219,1.384777 -0.401405,0.391359 -0.862997,0.697415 -1.384777,0.918167 -0.521819,0.22077 -1.083756,0.331151 -1.685815,0.331142 -0.602094,9e-6 -1.153997,-0.110372 -1.655711,-0.331142 l -4.3650562,-1.95675 c 0.080265,0.180634 0.1505072,0.361257 0.2107269,0.541869 0.3210952,0.78271 0.7726523,1.455028 1.3546727,2.016957 0.5819935,0.561947 1.2643466,1.018521 2.0470606,1.369725 0.782684,0.351218 1.615556,0.526824 2.498619,0.526817 0.923165,7e-6 1.776107,-0.175599 2.558826,-0.526817 0.782679,-0.351204 1.465032,-0.807778 2.047061,-1.369725 0.581985,-0.561929 1.043576,-1.239264 1.384777,-2.032009 0.341152,-0.792723 0.51174,-1.630612 0.511765,-2.51367 -2.5e-5,-0.883032 -0.170613,-1.715904 -0.511765,-2.498619 -0.341201,-0.782683 -0.802792,-1.470053 -1.384777,-2.062113 -0.582029,-0.592024 -1.264382,-1.053615 -2.047061,-1.384776 -0.782719,-0.331123 -1.635661,-0.496694 -2.558826,-0.496713 -0.883063,1.9e-5 -1.715935,0.160573 -2.498619,0.481661 -0.04015,0.02009 -0.09033,0.04016 -0.150519,0.06021 z m 24.173382,-6.442222 c 1.224182,2.6e-5 2.383179,-0.240805 3.476993,-0.722492 1.093729,-0.481635 2.057051,-1.123849 2.889969,-1.926645 0.832826,-0.802741 1.485075,-1.751011 1.956749,-2.844813 0.471579,-1.093741 0.707392,-2.252738 0.707441,-3.476993 -4.9e-5,-1.224188 -0.235862,-2.388202 -0.707441,-3.492046 -0.471674,-1.103768 -1.123923,-2.06709 -1.956749,-2.889968 C 40.832171,9.7379722 39.868849,9.0907403 38.77512,8.6190714 37.681306,8.1474877 36.522309,7.9116745 35.298127,7.9116312 c -1.24433,4.33e-5 -2.408344,0.2358565 -3.492045,0.7074402 -1.083773,0.4716689 -2.03706,1.1189008 -2.859865,1.9416976 -0.82287,0.822878 -1.470102,1.7862 -1.941697,2.889968 -0.471658,1.103844 -0.707471,2.267858 -0.70744,3.492046 -3.1e-5,1.224255 0.235782,2.383252 0.70744,3.476993 0.471595,1.093802 1.118827,2.042072 1.941697,2.844813 0.822805,0.802796 1.776092,1.44501 2.859865,1.926645 1.083701,0.481687 2.247715,0.722518 3.492045,0.722492 z M 0.85933643,27.75006 8.5960228,31.212002 c 0.5017173,-0.361226 1.0736896,-0.682333 1.7159192,-0.963323 1.043584,-0.441501 2.137355,-0.662263 3.281318,-0.662284 l 0.331142,0 8.128036,-11.28894 c -0.02009,-0.381282 -0.03013,-0.782666 -0.0301,-1.204153 -2.7e-5,-1.846333 0.34115,-3.582319 1.02353,-5.207964 0.682326,-1.625566 1.630596,-3.0454627 2.844813,-4.2596933 1.214157,-1.2141433 2.629036,-2.1674305 4.244641,-2.8598646 1.615537,-0.6923411 3.336471,-1.0385349 5.162808,-1.0385824 1.866397,4.75e-5 3.6074,0.3462413 5.223016,1.0385824 1.615526,0.6924341 3.035423,1.6457213 4.259693,2.8598646 1.224173,1.2142306 2.182477,2.6341273 2.874917,4.2596933 0.692335,1.625645 1.038529,3.361631 1.038582,5.207964 -5.3e-5,1.846401 -0.346247,3.57737 -1.038582,5.192912 -0.69244,1.6156 -1.650744,3.020444 -2.874917,4.214537 -1.22427,1.194143 -2.644167,2.137395 -4.259693,2.829761 -1.615616,0.692409 -3.356619,1.038603 -5.223016,1.038582 -0.782738,2.1e-5 -1.545368,-0.06019 -2.287892,-0.180623 l -10.807277,7.826998 0,0.180623 c -2.7e-5,1.184096 -0.220788,2.297937 -0.662285,3.341526 -0.441548,1.043609 -1.058676,1.946723 -1.851386,2.709346 -0.792757,0.762637 -1.705906,1.364713 -2.739449,1.80623 -1.033585,0.441528 -2.152444,0.662289 -3.356578,0.662284 -1.143963,5e-6 -2.237734,-0.220756 -3.281318,-0.662284 C 9.2683283,45.611677 8.3551795,45.009601 7.5724923,44.246964 6.7897815,43.484341 6.1776707,42.571192 5.7361582,41.507514 5.4150409,40.744894 5.2043143,39.942126 5.1039776,39.099207 L 0.85933643,37.142458 z"
     style="font-size:61.65266036999998500px;font-variant:normal;font-stretch:normal;font-family:x22;-inkscape-font-specification:x22;fill:#8f8f8f;fill-opacity:1"
     id="path3007" /></g></svg>