<?xml version="1.0" encoding="UTF-8" standalone="no"?>
<!-- Generator: Adobe Illustrator 16.0.0, SVG Export Plug-In . SVG Version: 6.00 Build 0)  -->

<svg
   xmlns:dc="http://purl.org/dc/elements/1.1/"
   xmlns:cc="http://creativecommons.org/ns#"
   xmlns:rdf="http://www.w3.org/1999/02/22-rdf-syntax-ns#"
   xmlns:svg="http://www.w3.org/2000/svg"
   xmlns="http://www.w3.org/2000/svg"
   xmlns:sodipodi="http://sodipodi.sourceforge.net/DTD/sodipodi-0.dtd"
   xmlns:inkscape="http://www.inkscape.org/namespaces/inkscape"
   version="1.1"
   id="Capa_1"
   x="0px"
   y="0px"
   width="49.652px"
   height="49.652px"
   viewBox="0 0 49.652 49.652"
   style="enable-background:new 0 0 49.652 49.652;"
   xml:space="preserve"
   inkscape:version="0.48.4 r9939"
   sodipodi:docname="youtube.svg"><metadata
   id="metadata3577"><rdf:RDF><cc:Work
       rdf:about=""><dc:format>image/svg+xml</dc:format><dc:type
         rdf:resource="http://purl.org/dc/dcmitype/StillImage" /><dc:title></dc:title></cc:Work></rdf:RDF></metadata><defs
   id="defs3575" /><sodipodi:namedview
   pagecolor="#ffffff"
   bordercolor="#666666"
   borderopacity="1"
   objecttolerance="10"
   gridtolerance="10"
   guidetolerance="10"
   inkscape:pageopacity="0"
   inkscape:pageshadow="2"
   inkscape:window-width="1644"
   inkscape:window-height="940"
   id="namedview3573"
   showgrid="false"
   inkscape:zoom="8"
   inkscape:cx="11.429001"
   inkscape:cy="24.805385"
   inkscape:window-x="87"
   inkscape:window-y="43"
   inkscape:window-maximized="0"
   inkscape:current-layer="Capa_1"
   inkscape:snap-page="false"
   showguides="true"
   inkscape:guide-bbox="true" />

<g
   id="g3543">
</g>
<g
   id="g3545">
</g>
<g
   id="g3547">
</g>
<g
   id="g3549">
</g>
<g
   id="g3551">
</g>
<g
   id="g3553">
</g>
<g
   id="g3555">
</g>
<g
   id="g3557">
</g>
<g
   id="g3559">
</g>
<g
   id="g3561">
</g>
<g
   id="g3563">
</g>
<g
   id="g3565">
</g>
<g
   id="g3567">
</g>
<g
   id="g3569">
</g>
<g
   id="g3571">
</g>
<flowRoot
   xml:space="preserve"
   id="flowRoot3579"
   style="fill:black;stroke:none;stroke-opacity:1;stroke-width:1px;stroke-linejoin:miter;stroke-linecap:butt;fill-opacity:1;font-family:Sans;font-style:normal;font-weight:normal;font-size:40px;line-height:125%;letter-spacing:0px;word-spacing:0px"><flowRegion
     id="flowRegion3581"><rect
       id="rect3583"
       width="25.445755"
       height="40.481884"
       x="17.438351"
       y="7.0348086" /></flowRegion><flowPara
     id="flowPara3585" /></flowRoot><g
   style="font-size:77.70072936999999100px;font-style:normal;font-weight:normal;line-height:125%;letter-spacing:0px;word-spacing:0px;fill:#8f8f8f;fill-opacity:1;stroke:none;font-family:Sans"
   id="text3002"><path
     d="m 43.836131,15.09861 c -5.1e-5,0.328853 -5.1e-5,0.70825 0,1.138194 -5.1e-5,3.288154 -0.613411,6.506711 -1.840081,9.655681 -1.226769,3.149032 -2.934058,6.051425 -5.121874,8.707187 -2.187905,2.655806 -5.046034,4.805726 -8.574397,6.449767 -3.528434,1.644073 -7.442554,2.466101 -11.742371,2.466088 -5.311592,1.3e-5 -10.2058224,-1.429052 -14.6827065,-4.287199 0.7587865,0.0759 1.5175819,0.113837 2.2763886,0.11382 4.4768818,1.7e-5 8.4352649,-1.340521 11.8751599,-4.02162 -2.023477,-0.101151 -3.85091,-0.758774 -5.482302,-1.97287 -1.6314278,-1.214049 -2.7506511,-2.794873 -3.3576732,-4.742476 0.6070221,0.07591 1.2014119,0.113847 1.7831711,0.113819 0.8346589,2.8e-5 1.6819801,-0.07585 2.5419671,-0.227639 C 10.398495,28.238459 9.380444,27.814798 8.4572584,27.220379 7.5340418,26.626019 6.7120134,25.930456 5.9911708,25.133689 5.2703021,24.336986 4.7201754,23.413785 4.3407891,22.364083 3.96138,21.314451 3.7716811,20.195227 3.771692,19.00641 c -1.09e-5,3.8e-5 -1.09e-5,-0.0379 0,-0.113819 1.3658209,0.758833 2.8075322,1.17617 4.3251382,1.252013 -2.782265,-1.947538 -4.17339,-4.603322 -4.173379,-7.96736 C 3.9234402,10.406766 4.3407777,8.813296 5.1754649,7.3968283 10.309968,13.619 16.886195,16.945054 24.904166,17.374998 c -0.177084,-0.682876 -0.265611,-1.403732 -0.265579,-2.162569 -3.2e-5,-2.681035 0.948463,-4.951098 2.845486,-6.8101957 1.896954,-1.8590003 4.148047,-2.7885247 6.753286,-2.788576 2.782208,5.13e-5 5.096534,1.0117785 6.942985,3.0351847 2.200458,-0.4299358 4.261853,-1.226671 6.184189,-2.3902079 -0.75885,2.3523164 -2.187915,4.1228389 -4.287199,5.3115729 1.947525,-0.177007 3.806574,-0.68287 5.577152,-1.517592 -1.365887,1.922329 -2.972004,3.604325 -4.818355,5.045995 z"
     style="font-variant:normal;font-stretch:normal;font-family:x22;-inkscape-font-specification:x22;fill:#8f8f8f;fill-opacity:1"
     id="path3780" /></g></svg>