<?xml version="1.0" encoding="UTF-8" standalone="no"?>
<!-- Generator: Adobe Illustrator 16.0.0, SVG Export Plug-In . SVG Version: 6.00 Build 0)  -->

<svg
   xmlns:dc="http://purl.org/dc/elements/1.1/"
   xmlns:cc="http://creativecommons.org/ns#"
   xmlns:rdf="http://www.w3.org/1999/02/22-rdf-syntax-ns#"
   xmlns:svg="http://www.w3.org/2000/svg"
   xmlns="http://www.w3.org/2000/svg"
   xmlns:sodipodi="http://sodipodi.sourceforge.net/DTD/sodipodi-0.dtd"
   xmlns:inkscape="http://www.inkscape.org/namespaces/inkscape"
   version="1.1"
   id="Capa_1"
   x="0px"
   y="0px"
   width="49.652px"
   height="49.652px"
   viewBox="0 0 49.652 49.652"
   style="enable-background:new 0 0 49.652 49.652;"
   xml:space="preserve"
   inkscape:version="0.48.4 r9939"
   sodipodi:docname="rss.svg"><metadata
   id="metadata3577"><rdf:RDF><cc:Work
       rdf:about=""><dc:format>image/svg+xml</dc:format><dc:type
         rdf:resource="http://purl.org/dc/dcmitype/StillImage" /><dc:title></dc:title></cc:Work></rdf:RDF></metadata><defs
   id="defs3575" /><sodipodi:namedview
   pagecolor="#ffffff"
   bordercolor="#666666"
   borderopacity="1"
   objecttolerance="10"
   gridtolerance="10"
   guidetolerance="10"
   inkscape:pageopacity="0"
   inkscape:pageshadow="2"
   inkscape:window-width="1644"
   inkscape:window-height="940"
   id="namedview3573"
   showgrid="false"
   inkscape:zoom="8"
   inkscape:cx="11.429001"
   inkscape:cy="36.735445"
   inkscape:window-x="87"
   inkscape:window-y="43"
   inkscape:window-maximized="0"
   inkscape:current-layer="Capa_1"
   inkscape:snap-page="false"
   showguides="true"
   inkscape:guide-bbox="true" />

<g
   id="g3543">
</g>
<g
   id="g3545">
</g>
<g
   id="g3547">
</g>
<g
   id="g3549">
</g>
<g
   id="g3551">
</g>
<g
   id="g3553">
</g>
<g
   id="g3555">
</g>
<g
   id="g3557">
</g>
<g
   id="g3559">
</g>
<g
   id="g3561">
</g>
<g
   id="g3563">
</g>
<g
   id="g3565">
</g>
<g
   id="g3567">
</g>
<g
   id="g3569">
</g>
<g
   id="g3571">
</g>
<flowRoot
   xml:space="preserve"
   id="flowRoot3579"
   style="fill:black;stroke:none;stroke-opacity:1;stroke-width:1px;stroke-linejoin:miter;stroke-linecap:butt;fill-opacity:1;font-family:Sans;font-style:normal;font-weight:normal;font-size:40px;line-height:125%;letter-spacing:0px;word-spacing:0px"><flowRegion
     id="flowRegion3581"><rect
       id="rect3583"
       width="25.445755"
       height="40.481884"
       x="17.438351"
       y="7.0348086" /></flowRegion><flowPara
     id="flowPara3585" /></flowRoot><g
   style="font-size:85.81681824000000300px;font-style:normal;font-weight:normal;line-height:125%;letter-spacing:0px;word-spacing:0px;fill:#8f8f8f;fill-opacity:1;stroke:none;font-family:Sans"
   id="text3010"><path
     d="m 33.014528,33.500236 c -4.2e-5,2.765604 -1.354896,4.525518 -4.064566,5.279745 -1.201248,0.335243 -3.65954,0.502854 -7.374883,0.502833 l -1.634207,0 0,-11.229935 3.81315,0 c 3.044897,3.2e-5 5.112097,0.195578 6.201606,0.586638 2.039226,0.75428 3.058858,2.374518 3.0589,4.860719 z M 30.165141,15.356348 c -3.8e-5,2.234855 -0.85206,3.70145 -2.556067,4.399788 -1.005701,0.391132 -2.821485,0.586678 -5.447357,0.586638 l -2.220845,0 0,-9.47002 2.891289,0 c 2.318585,4.9e-5 3.95279,0.181628 4.902621,0.544736 1.620202,0.642557 2.430321,1.955508 2.430359,3.938858 z m 14.414544,18.395304 c -5.3e-5,-5.950157 -3.05895,-9.567757 -9.176701,-10.85281 l 0,-0.209514 C 39.53734,20.957387 41.60454,17.744846 41.60459,13.051697 41.60454,8.7776682 39.774789,5.8444792 36.115331,4.2521209 33.656994,3.1906414 29.983524,2.6598738 25.094909,2.6598166 l -16.3839721,0 0,44.8359354 17.9343741,0 c 5.084159,1.2e-5 9.190624,-0.977717 12.319407,-2.933192 3.74326,-2.374471 5.614914,-5.978104 5.614967,-10.810908 z"
     style="font-variant:normal;font-stretch:normal;font-family:x22;-inkscape-font-specification:x22;fill:#8f8f8f;fill-opacity:1"
     id="path3040" /></g></svg>